<svg width="161" height="55" viewBox="0 0 1957 603" fill="none" xmlns="http://www.w3.org/2000/svg">
<path d="M583.287 3.78172e-05C600.48 3.93232e-05 611.225 21.1579 602.629 38.0842L322.169 590.305C313.573 607.232 292.082 607.232 283.485 590.305L3.02554 38.0842C-5.57092 21.1579 5.17468 -1.506e-06 22.3676 0L583.287 3.78172e-05Z" fill="url(#paint0_linear_1210_1381)"/>
<path fill-rule="evenodd" clip-rule="evenodd" d="M472.223 295.562L602.99 38.0842C611.586 21.1579 600.84 1.94181e-05 583.648 1.79121e-05L317.969 0L472.223 295.562Z" fill="#191919"/>
<path d="M1245.58 75.4694C1246.85 74.8329 1248.02 74.5146 1249.1 74.5146C1251.2 74.5146 1252.95 75.8832 1254.35 78.6204C1255.11 80.1481 1255.49 81.4848 1255.49 82.6306C1255.49 84.7313 1254.19 86.4181 1251.58 87.6913L1187.5 118.437L1251.58 149.182C1254.19 150.455 1255.49 152.142 1255.49 154.243C1255.49 155.389 1255.11 156.726 1254.35 158.253C1252.95 160.99 1251.2 162.359 1249.1 162.359C1248.02 162.359 1246.85 162.041 1245.58 161.404L1171.48 125.025C1169.89 124.261 1168.75 123.37 1168.05 122.352C1167.35 121.333 1167 120.028 1167 118.437C1167 116.845 1167.35 115.54 1168.05 114.522C1168.75 113.504 1169.89 112.612 1171.48 111.848L1245.58 75.4694Z" fill="#191919"/>
<path d="M1374.67 60.765C1376.83 60.765 1378.35 61.2743 1379.24 62.2927C1380.2 63.2476 1380.67 64.9026 1380.67 67.2579C1380.67 69.6131 1380.2 71.3 1379.24 72.3185C1378.35 73.2733 1376.83 73.7507 1374.67 73.7507H1367.8V161.118H1374.67C1376.83 161.118 1378.35 161.627 1379.24 162.646C1380.2 163.6 1380.67 165.255 1380.67 167.611C1380.67 169.966 1380.2 171.653 1379.24 172.671C1378.35 173.626 1376.83 174.103 1374.67 174.103H1344.72C1342.56 174.103 1341.01 173.626 1340.05 172.671C1339.16 171.653 1338.72 169.966 1338.72 167.611C1338.72 165.255 1339.16 163.6 1340.05 162.646C1341.01 161.627 1342.56 161.118 1344.72 161.118H1353.5V122.161H1306.01V161.118H1314.78C1316.94 161.118 1318.47 161.627 1319.36 162.646C1320.31 163.6 1320.79 165.255 1320.79 167.611C1320.79 169.966 1320.31 171.653 1319.36 172.671C1318.47 173.626 1316.94 174.103 1314.78 174.103H1284.84C1282.68 174.103 1281.12 173.626 1280.17 172.671C1279.28 171.653 1278.83 169.966 1278.83 167.611C1278.83 165.255 1279.28 163.6 1280.17 162.646C1281.12 161.627 1282.68 161.118 1284.84 161.118H1291.71V73.7507H1284.84C1282.68 73.7507 1281.12 73.2733 1280.17 72.3185C1279.28 71.3 1278.83 69.6131 1278.83 67.2579C1278.83 64.9026 1279.28 63.2476 1280.17 62.2927C1281.12 61.2743 1282.68 60.765 1284.84 60.765H1314.78C1316.94 60.765 1318.47 61.2743 1319.36 62.2927C1320.31 63.2476 1320.79 64.9026 1320.79 67.2579C1320.79 69.6131 1320.31 71.3 1319.36 72.3185C1318.47 73.2733 1316.94 73.7507 1314.78 73.7507H1306.01V109.175H1353.5V73.7507H1344.72C1342.56 73.7507 1341.01 73.2733 1340.05 72.3185C1339.16 71.3 1338.72 69.6131 1338.72 67.2579C1338.72 64.9026 1339.16 63.2476 1340.05 62.2927C1341.01 61.2743 1342.56 60.765 1344.72 60.765H1374.67Z" fill="#191919"/>
<path d="M1486.79 60.765C1488.95 60.765 1490.47 61.2743 1491.36 62.2927C1492.32 63.2476 1492.79 64.9026 1492.79 67.2579V103.255C1492.79 105.483 1492.25 107.074 1491.17 108.029C1490.09 108.984 1488.25 109.461 1485.64 109.461C1483.03 109.461 1481.19 108.984 1480.11 108.029C1479.03 107.074 1478.49 105.483 1478.49 103.255V73.7507H1453.03V161.118H1475.53C1477.69 161.118 1479.22 161.627 1480.11 162.646C1481.06 163.6 1481.54 165.255 1481.54 167.611C1481.54 169.966 1481.06 171.653 1480.11 172.671C1479.22 173.626 1477.69 174.103 1475.53 174.103H1416.22C1414.06 174.103 1412.5 173.626 1411.55 172.671C1410.66 171.653 1410.21 169.966 1410.21 167.611C1410.21 165.255 1410.66 163.6 1411.55 162.646C1412.5 161.627 1414.06 161.118 1416.22 161.118H1438.72V73.7507H1413.26V103.255C1413.26 105.483 1412.72 107.074 1411.64 108.029C1410.56 108.984 1408.72 109.461 1406.11 109.461C1403.51 109.461 1401.66 108.984 1400.58 108.029C1399.5 107.074 1398.96 105.483 1398.96 103.255V67.2579C1398.96 64.9026 1399.41 63.2476 1400.3 62.2927C1401.25 61.2743 1402.81 60.765 1404.97 60.765H1486.79Z" fill="#191919"/>
<path d="M1608.82 60.765C1610.98 60.765 1612.51 61.2743 1613.4 62.2927C1614.35 63.2476 1614.83 64.9026 1614.83 67.2579C1614.83 69.6131 1614.35 71.3 1613.4 72.3185C1612.51 73.2733 1610.98 73.7507 1608.82 73.7507H1604.05L1606.53 161.118H1611.68C1613.84 161.118 1615.37 161.627 1616.26 162.646C1617.21 163.6 1617.69 165.255 1617.69 167.611C1617.69 169.966 1617.21 171.653 1616.26 172.671C1615.37 173.626 1613.84 174.103 1611.68 174.103H1581.74C1579.58 174.103 1578.02 173.626 1577.07 172.671C1576.18 171.653 1575.73 169.966 1575.73 167.611C1575.73 165.255 1576.18 163.6 1577.07 162.646C1578.02 161.627 1579.58 161.118 1581.74 161.118H1592.32L1590.23 82.9171L1570.77 137.342C1569.95 139.57 1568.83 141.162 1567.44 142.117C1566.1 143.071 1564.29 143.549 1562 143.549C1559.71 143.549 1557.87 143.071 1556.47 142.117C1555.13 141.162 1554.05 139.57 1553.23 137.342L1533.68 82.9171L1531.68 161.118H1542.26C1544.42 161.118 1545.95 161.627 1546.84 162.646C1547.79 163.6 1548.27 165.255 1548.27 167.611C1548.27 169.966 1547.79 171.653 1546.84 172.671C1545.95 173.626 1544.42 174.103 1542.26 174.103H1512.32C1510.16 174.103 1508.6 173.626 1507.65 172.671C1506.76 171.653 1506.31 169.966 1506.31 167.611C1506.31 165.255 1506.76 163.6 1507.65 162.646C1508.6 161.627 1510.16 161.118 1512.32 161.118H1517.47L1519.85 73.7507H1515.18C1513.02 73.7507 1511.46 73.2733 1510.51 72.3185C1509.62 71.3 1509.17 69.6131 1509.17 67.2579C1509.17 64.9026 1509.62 63.2476 1510.51 62.2927C1511.46 61.2743 1513.02 60.765 1515.18 60.765H1535.3C1536.83 60.765 1538.03 61.0196 1538.92 61.5289C1539.81 62.0381 1540.45 62.8338 1540.83 63.916L1562 122.065L1583.07 63.916C1583.77 61.8153 1585.65 60.765 1588.7 60.765H1608.82Z" fill="#191919"/>
<path d="M1686.04 60.765C1688.2 60.765 1689.73 61.2743 1690.62 62.2927C1691.57 63.2476 1692.05 64.9026 1692.05 67.2579C1692.05 69.6131 1691.57 71.3 1690.62 72.3185C1689.73 73.2733 1688.2 73.7507 1686.04 73.7507H1662.96V161.118H1710.16V129.704C1710.16 127.476 1710.7 125.885 1711.78 124.93C1712.87 123.975 1714.71 123.497 1717.32 123.497C1719.92 123.497 1721.77 123.975 1722.85 124.93C1723.93 125.885 1724.47 127.476 1724.47 129.704V167.611C1724.47 169.966 1723.99 171.653 1723.04 172.671C1722.15 173.626 1720.62 174.103 1718.46 174.103H1633.21C1631.05 174.103 1629.49 173.626 1628.54 172.671C1627.65 171.653 1627.2 169.966 1627.2 167.611C1627.2 165.255 1627.65 163.6 1628.54 162.646C1629.49 161.627 1631.05 161.118 1633.21 161.118H1648.66V73.7507H1633.21C1631.05 73.7507 1629.49 73.2733 1628.54 72.3185C1627.65 71.3 1627.2 69.6131 1627.2 67.2579C1627.2 64.9026 1627.65 63.2476 1628.54 62.2927C1629.49 61.2743 1631.05 60.765 1633.21 60.765H1686.04Z" fill="#191919"/>
<path d="M1825.14 41C1827.69 41 1829.78 41.4774 1831.44 42.4322C1833.09 43.3871 1833.92 44.5965 1833.92 46.0606C1833.92 46.5698 1833.82 47.1109 1833.63 47.6838L1769.55 204.563C1769.1 205.581 1768.31 206.409 1767.16 207.045C1766.08 207.682 1764.81 208 1763.35 208C1760.81 208 1758.71 207.523 1757.06 206.568C1755.4 205.613 1754.58 204.403 1754.58 202.939C1754.58 202.43 1754.67 201.889 1754.86 201.316L1818.94 44.4374C1819.39 43.4189 1820.15 42.5914 1821.23 41.9548C1822.38 41.3183 1823.68 41 1825.14 41Z" fill="#191919"/>
<path d="M1952.52 111.848C1954.11 112.612 1955.25 113.504 1955.95 114.522C1956.65 115.54 1957 116.845 1957 118.437C1957 120.028 1956.65 121.333 1955.95 122.352C1955.25 123.37 1954.11 124.261 1952.52 125.025L1878.42 161.404C1877.15 162.041 1875.98 162.359 1874.9 162.359C1872.8 162.359 1871.05 160.99 1869.65 158.253C1868.89 156.726 1868.51 155.389 1868.51 154.243C1868.51 152.142 1869.81 150.455 1872.42 149.182L1936.5 118.437L1872.42 87.6913C1869.81 86.4181 1868.51 84.7313 1868.51 82.6306C1868.51 81.4848 1868.89 80.1481 1869.65 78.6204C1871.05 75.8832 1872.8 74.5146 1874.9 74.5146C1875.98 74.5146 1877.15 74.8329 1878.42 75.4694L1952.52 111.848Z" fill="#191919"/>
<path d="M1013 134.5L867 496H806.25L660.25 134.5H714.25C720.083 134.5 724.833 135.917 728.5 138.75C732.167 141.583 734.917 145.25 736.75 149.75L822 370.25C824.833 377.417 827.5 385.333 830 394C832.667 402.5 835.167 411.417 837.5 420.75C839.5 411.417 841.667 402.5 844 394C846.333 385.333 848.917 377.417 851.75 370.25L936.5 149.75C937.833 145.917 940.417 142.417 944.25 139.25C948.25 136.083 953.083 134.5 958.75 134.5H1013ZM1102.17 239.5V496H1040.17V239.5H1102.17ZM1110.67 164.75C1110.67 170.083 1109.58 175.083 1107.42 179.75C1105.25 184.417 1102.33 188.5 1098.67 192C1095.17 195.5 1091 198.333 1086.17 200.5C1081.33 202.5 1076.17 203.5 1070.67 203.5C1065.33 203.5 1060.25 202.5 1055.42 200.5C1050.75 198.333 1046.67 195.5 1043.17 192C1039.67 188.5 1036.83 184.417 1034.67 179.75C1032.67 175.083 1031.67 170.083 1031.67 164.75C1031.67 159.25 1032.67 154.083 1034.67 149.25C1036.83 144.417 1039.67 140.25 1043.17 136.75C1046.67 133.25 1050.75 130.5 1055.42 128.5C1060.25 126.333 1065.33 125.25 1070.67 125.25C1076.17 125.25 1081.33 126.333 1086.17 128.5C1091 130.5 1095.17 133.25 1098.67 136.75C1102.33 140.25 1105.25 144.417 1107.42 149.25C1109.58 154.083 1110.67 159.25 1110.67 164.75ZM1224.37 429.5C1231.37 438 1238.95 444 1247.12 447.5C1255.45 451 1264.45 452.75 1274.12 452.75C1283.45 452.75 1291.87 451 1299.37 447.5C1306.87 444 1313.2 438.667 1318.37 431.5C1323.7 424.333 1327.79 415.333 1330.62 404.5C1333.45 393.5 1334.87 380.583 1334.87 365.75C1334.87 350.75 1333.62 338.083 1331.12 327.75C1328.79 317.25 1325.37 308.75 1320.87 302.25C1316.37 295.75 1310.87 291 1304.37 288C1298.04 285 1290.79 283.5 1282.62 283.5C1269.79 283.5 1258.87 286.25 1249.87 291.75C1240.87 297.083 1232.37 304.667 1224.37 314.5V429.5ZM1221.12 274.5C1231.62 262.667 1243.54 253.083 1256.87 245.75C1270.2 238.417 1285.87 234.75 1303.87 234.75C1317.87 234.75 1330.62 237.667 1342.12 243.5C1353.79 249.333 1363.79 257.833 1372.12 269C1380.62 280 1387.12 293.667 1391.62 310C1396.29 326.167 1398.62 344.75 1398.62 365.75C1398.62 384.917 1396.04 402.667 1390.87 419C1385.7 435.333 1378.29 449.5 1368.62 461.5C1359.12 473.5 1347.54 482.917 1333.87 489.75C1320.37 496.417 1305.2 499.75 1288.37 499.75C1274.04 499.75 1261.79 497.583 1251.62 493.25C1241.45 488.75 1232.37 482.583 1224.37 474.75V579.75H1162.62V239.5H1200.37C1208.37 239.5 1213.62 243.25 1216.12 250.75L1221.12 274.5ZM1669.98 239.5L1530.23 566.5C1528.39 570.833 1525.98 574.083 1522.98 576.25C1520.14 578.583 1515.73 579.75 1509.73 579.75H1463.73L1511.73 476.75L1407.98 239.5H1462.23C1467.06 239.5 1470.81 240.667 1473.48 243C1476.31 245.333 1478.39 248 1479.73 251L1534.23 384C1536.06 388.5 1537.56 393 1538.73 397.5C1540.06 402 1541.31 406.583 1542.48 411.25C1543.98 406.583 1545.48 402 1546.98 397.5C1548.48 392.833 1550.14 388.25 1551.98 383.75L1603.48 251C1604.81 247.667 1606.98 244.917 1609.98 242.75C1613.14 240.583 1616.64 239.5 1620.48 239.5H1669.98Z" fill="black"/>
<defs>
<linearGradient id="paint0_linear_1210_1381" x1="302.827" y1="0" x2="302.827" y2="603" gradientUnits="userSpaceOnUse">
<stop stop-color="#449AFF"/>
<stop offset="1" stop-color="#07D4D4"/>
</linearGradient>
</defs>
</svg>
